<?xml version="1.0" encoding="UTF-8"?>
<svg version="1.1" viewBox="0 0 2048 703" width="128" height="32" xmlns="http://www.w3.org/2000/svg">
<path transform="translate(0)" d="m0 0h2048v703h-2048z" fill="#17A4B2"/>
<path transform="translate(1843,167)" d="m0 0h31l10 3 7 6 3 5 1 4 1 174 9 9 5 9 1 3v8l-3 8-9 10-14 14-8 4h-13l-10-6-14-14v-2l-8 7-9 7-10 5-16 4h-28l-16-4-12-5-11-7-10-10-8-13-5-13-2-10-1-20v-38l1-14 4-15 7-14 9-10 9-8 16-8 16-4 9-1h12l14 2 13 5 7 4 1-57 3-8 8-7z" fill="#FEFEFE"/>
<path transform="translate(668,170)" d="m0 0h71l9 4 8 7 6 13 56 196 2 10v8l-4 8-7 4-7 1-43-1-6-4-4-5-5-16-7-27v-3l-72 1-11 41-3 6-5 5-4 2h-44l-6-3-4-6-1-4 1-13 13-47 15-52 16-56 13-45 7-14 8-7z" fill="#FEFEFE"/>
<path transform="translate(230,165)" d="m0 0h30l22 3 15 4 12 5 11 7 10 9 8 11 5 11 3 11 1 8v27l-3 5-4 3h-60l-5-5-1-3-1-22-3-9-7-6-10-3h-17l-11 4-6 5-4 9v113l5 10 8 5 7 2h20l10-4 5-5 3-8 1-26 3-6 4-2h59l6 5 1 3v31l-3 15-5 12-6 10-11 11-11 7-16 7-16 4-15 2-14 1h-12l-27-3-19-5-14-6-12-8-10-9-9-12-6-13-3-12-1-7v-111l3-16 5-13 8-12 7-8 12-9 16-8 16-5 15-3z" fill="#FEFEFE"/>
<path transform="translate(1e3 165)" d="m0 0h32l21 3 15 4 17 8 12 9 9 10 8 16 3 12 1 9v25l-3 5-4 3h-60l-5-5-1-2-1-23-4-10-6-5-10-3h-16l-11 3-8 7-3 7-1 7v100l2 10 4 6v2l4 2 11 4h20l10-4 5-5 3-9 1-26 4-6 2-1h60l6 5 1 3v30l-3 16-5 12-7 11-10 10-13 8-14 6-16 4-16 2h-37l-20-3-17-5-16-8-11-8-8-8-9-14-5-12-3-15v-114l4-18 8-16 9-11 11-9 14-8 13-5 23-5z" fill="#FEFEFE"/>
<path transform="translate(400,170)" d="m0 0h159l6 4 3 7v34l-3 7-4 3-3 1h-100v39h69l10 2 8 6 4 5 3 9v14l-3 9-6 7-8 4-4 1h-73v42h99l8 4 3 7v35l-3 6-5 4-7 1h-30l-125-1-6-3-6-7-2-6v-219l4-8 6-5z" fill="#FEFEFE"/>
<path transform="translate(1490,236)" d="m0 0h55l6 4 3 5 1 109 3 9 6 5 6 2h8l9-3 5-5 2-6 1-110 4-7 6-3h54l6 3 3 4 1 3 1 114 10 10 4 9v11l-5 10-19 19-9 5h-13l-8-4-18-18-7 6-8 7-14 7-14 3h-28l-17-4-16-8-12-11-8-12-5-14-2-10v-122l6-7z" fill="#FEFEFE"/>
<path transform="translate(1176,167)" d="m0 0h32l9 3 6 4 5 9 1 7 1 176 1 1 13 1 6 3 2 4v35l-3 6-3 3-3 1h-48l-16-4-9-5-7-7-5-10-3-14v-195l5-10 6-5z" fill="#FEFEFE"/>
<path transform="translate(1309,323)" d="m0 0h5v10l3 16-12 2-1 5 7 13 10 12 14 10 13 5 3-3 2-11 11 2h9l13-1 1 11 1 1h6l14-7 11-9 9-11 7-12h15l7 1-1 6-8 16-8 10-8 9-13 10-16 8-19 5h-29l-17-4-17-8-11-8-14-14-9-14-5-11-4-13-2-17 8-3z" fill="#FEFEFE"/>
<path transform="translate(1361,300)" d="m0 0h16l14 7 8 7 8 4 5 2 1 1v17l-3 9-1 1-13 2-8 6-3 8-1 7-6 2h-18l-6-2-1-9-5-8-6-4-13-2-3-7-1-4v-16l2-2 11-4 12-10z" fill="#FEFEFE"/>
<path transform="translate(1796,280)" d="m0 0h8l9 3 6 5 3 8v61l-3 9-7 6-6 2h-12l-10-5-4-7-1-3v-64l3-7 7-6z" fill="#17A4B2"/>
<path transform="translate(1729,478)" d="m0 0h7l10 3 8 7 4 10v16l-4 9-4 5-10 5h-14l-10-5-6-7-3-8v-14l4-10 4-5 9-5z" fill="#17A4B2"/>
<path transform="translate(1417,478)" d="m0 0h7l10 3 8 7 4 8 1 4v11l-4 11-5 6-10 5h-14l-10-5-5-6-3-7-1-13 2-9 6-8 5-4z" fill="#17A4B2"/>
<path transform="translate(597,478)" d="m0 0h8l11 4 5 4 5 9 1 3v16l-5 10-7 6-7 3h-14l-8-4-5-5-4-8-1-3v-14l3-9 7-8z" fill="#17A4B2"/>
<path transform="translate(1026,478)" d="m0 0h8l11 4 5 4 5 9 1 3v15l-4 10-8 7-7 3h-14l-8-4-5-5-4-7-1-4v-14l4-10 6-7z" fill="#17A4B2"/>
<path transform="translate(687,478)" d="m0 0h8l9 3 8 6 4 8 1 3v16l-5 10-8 7-6 2h-14l-8-4-7-8-3-9v-13l4-10 5-6 8-4z" fill="#17A4B2"/>
<path transform="translate(1816,473)" d="m0 0 13 1 10 5 6 7 3 7 1 6v9h-55l4 13 6 7 9 4h14l10-5 4-5 3-8h5l-2 9-4 6-6 5-10 4h-15l-10-4-5-4-6-10-2-8v-13l3-10 7-9 8-5z" fill="#FEFEFE"/>
<path transform="translate(778,473)" d="m0 0h7l11 3 9 7 5 10 1 5v9l-1 1h-54l4 13 7 8 8 3h14l10-5 4-5 3-8h5l-2 9-6 8-8 5-6 2h-15l-10-4-5-4-6-10-2-7v-14l3-10 6-8 9-6z" fill="#FEFEFE"/>
<path transform="translate(1164,473)" d="m0 0 13 1 10 5 7 8 3 8v13l-54 1 2 9 6 9 10 5h14l10-5 4-5 3-8h5l-1 7-3 6-5 5-6 4-7 2h-14l-10-4-8-7-5-11-1-13 2-10 4-8 4-5 9-5z" fill="#FEFEFE"/>
<path transform="translate(700,224)" d="m0 0h2l13 52 8 31v3h-44l-1-3 20-76z" fill="#17A4B2"/>
<path transform="translate(430,458)" d="m0 0 4 1 5 12 18 47 7 18v1h-6l-5-12-3-8h-37l-7 19-1 1h-6l11-29 17-45z" fill="#FEFEFE"/>
<path transform="translate(1456,301)" d="m0 0 3 3 3 18v15l-2 12-1 2h-15l-23-2 3-15 1-11 14 1-2-14-1-4 16-4z" fill="#FEFEFE"/>
<path transform="translate(858,473)" d="m0 0h14l10 5 4 5 2 3 6-8 10-5h13l8 3 5 5 4 6 2 11v39h-5l-1-30-1-15-4-8-5-4-3-1h-12l-7 4-4 5-3 8-1 41h-5l-1-43-4-9-4-4-5-2h-12l-8 5-4 6-2 8-1 39h-5v-62h5v7l9-7z" fill="#FEFEFE"/>
<path transform="translate(1531,456)" d="m0 0 5 1 7 10 38 58 1-69 5 1v80h-5l-8-11-10-16-18-27-7-11-2-3-1 67-5 1z" fill="#FDFDFD"/>
<path transform="translate(1702,452)" d="m0 0h5l1 33 4-5 8-5 9-2 13 1 10 5 5 5 4 6 2 6v19l-4 10-6 7-10 5-3 1h-15l-10-4-7-7-1 10h-5zm27 26-9 3-6 4-6 10-1 4v14l4 9 6 7 9 4h14l10-5 6-8 2-6v-16l-4-10-8-7-10-3z" fill="#FEFEFE"/>
<path transform="translate(718,452)" d="m0 0h4v85h-5l-1-10-7 7-10 4h-15l-10-4-6-5-6-11-1-5v-15l4-11 7-8 10-5 13-1 9 2 9 6 3 3 1-31zm-31 26-9 3-6 5-5 9-1 4v13l4 11 7 7 7 3h14l9-4 7-8 3-7v-16l-4-9-4-5-9-5-5-1z" fill="#FEFEFE"/>
<path transform="translate(1027,473)" d="m0 0 13 1 10 5 5 5 1-9 5-1 1 1v61l-1 1h-5v-10l-7 6-8 4-3 1h-15l-10-4-6-5-5-9-2-6v-16l4-11 7-8 10-5zm-1 5-11 4-7 8-3 9v14l4 10 5 5 6 4 3 1h14l10-5 6-7 3-8v-15l-4-9-4-5-10-5-4-1z" fill="#FEFEFE"/>
<path transform="translate(1417,473)" d="m0 0h8l10 3 9 6 2 3 1-11 5 1v62h-5l-1-10-8 7-10 4h-14l-10-4-8-7-4-8-2-8v-10l2-9 6-10 8-6zm0 5-9 3-8 7-4 8-1 13 2 9 5 8 5 4 7 3h14l10-5 6-8 3-9v-11l-4-10-6-7-8-4-5-1z" fill="#FEFEFE"/>
<path transform="translate(598,473)" d="m0 0 13 1 10 5 5 5 1-9 5-1v63h-5l-1-10-7 7-10 4h-15l-10-4-6-5-5-8-2-7v-16l4-11 7-8 10-5zm-1 5-11 4-7 8-3 9v14l4 10 5 5 6 4 3 1h14l10-5 6-7 3-7v-16l-4-9-4-5-10-5-4-1z" fill="#FEFEFE"/>
<path transform="translate(1815,478)" d="m0 0h8l11 4 5 4 4 8 1 9h-50l2-10 6-9 9-5z" fill="#17A4B2"/>
<path transform="translate(778,478)" d="m0 0h7l11 4 7 7 3 9v5h-50l1-8 6-10 7-5z" fill="#17A4B2"/>
<path transform="translate(1164,478)" d="m0 0h7l10 3 7 6 4 9v7h-50l3-12 8-9z" fill="#17A4B2"/>
<path transform="translate(1618,474)" d="m0 0 4 1 1 38 2 9 4 6 6 4 11 1 9-3 5-5 4-8 1-42 5-1 1 1v61l-1 1h-5l-1-7-8 6-5 2-10 1-9-2-6-4-6-7-2-6-1-28v-17z" fill="#FEFEFE"/>
<path transform="translate(513,473)" d="m0 0 12 1 8 3 8 7 4 9v4l-4 1-6-12-8-5-7-2h-8l-11 4-6 7-3 7v17l4 9 5 5 8 4h14l9-4 6-7 2-7h5l-1 8-6 9-8 5-6 2h-15l-10-4-8-7-4-8-1-4v-19l4-9 7-8 7-4z" fill="#FEFEFE"/>
<path transform="translate(1246,473)" d="m0 0h13l10 4 6 7 3 7v46h-5l-1-45-4-8-6-4-3-1h-13l-6 3-6 7-2 5-1 8-1 35h-5v-62l5-1v9h2l2-4 8-5z" fill="#FEFEFE"/>
<path transform="translate(274,475)" d="m0 0h5l1 41 3 9 2 4 5 2 7 2 10-1 6-3 3-1 2-4 3-9 1-40h5v62h-5l-1-7-8 6-5 2-10 1-9-2-9-6-5-10-1-8z" fill="#FEFEFE"/>
<path transform="translate(1367,313)" d="m0 0 10 2 5 4 3 7-1 9-4 6-5 3-8 1-7-3-5-5-1-2v-12l4-6 5-3z" fill="#FEFEFE"/>
<path transform="translate(431,468)" d="m0 0 3 4 14 37v2h-33l7-20z" fill="#17A4B2"/>
<path transform="translate(200,456)" d="m0 0h50l1 4-1 1h-22v76h-5v-76h-23z" fill="#FEFEFE"/>
<path transform="translate(1357,452)" d="m0 0h5v85h-6v-84z" fill="#FEFEFE"/>
<path transform="translate(1281,300)" d="m0 0 9 1 12 3-1 7-2 9-9 3-8 2h-6l2-16z" fill="#FEFEFE"/>
<path transform="translate(1368,309)" d="m0 0 10 2 7 6 3 5 1 10-3 8-8 7-6 2-9-1-8-5-5-8-1-7 3-9 5-6 6-3zm-1 4-7 3-5 5-1 2v12l4 6 5 3 8 1 8-3 4-5 2-5-1-9-4-6-5-3z" fill="#17A4B2"/>
<path transform="translate(1440,273)" d="m0 0 4 1 8 12v3l-18 6h-3l-7-11 10-7z" fill="#FEFEFE"/>
<path transform="translate(1297,271)" d="m0 0 11 7 7 4-2 4-5 8-10-3-11-4 2-5 6-9z" fill="#FEFEFE"/>
<path transform="translate(967,474)" d="m0 0 5 1v61l-1 1h-5v-62z" fill="#FEFEFE"/>
<path transform="translate(1419,251)" d="m0 0 9 6 5 4-2 4-11 9-2 2-4-1-7-6 2-4 9-13z" fill="#FEFEFE"/>
<path transform="translate(1318,251)" d="m0 0 4 1 11 15-4 4-5 4-5-2-10-9-3-3 9-8z" fill="#FEFEFE"/>
<path transform="translate(1345,239)" d="m0 0h4l5 20-9 4-4-1-9-17 1-2z" fill="#FEFEFE"/>
<path transform="translate(1391,239)" d="m0 0 11 3 5 2-1 5-8 14-2 1-10-4 2-11z" fill="#FEFEFE"/>
<path transform="translate(1365,236)" d="m0 0 13 1-1 15-1 6h-12l-2-10-1-11z" fill="#FEFEFE"/>
<path transform="translate(1354,375)" d="m0 0 16 2 15-2-1 4-4 1h-22l-5-2z" fill="#FEFEFE"/>
<path transform="translate(1417,321)" d="m0 0 3 1 1 2-1 16-3 8-3 1 1-7 1-4z" fill="#FEFEFE"/>
<path transform="translate(1319,321)" d="m0 0h2l1 16 3 11h-4l-3-10v-16z" fill="#FEFEFE"/>
<path transform="translate(967,453)" d="m0 0 5 1 1 5-2 2h-5l-1-1v-6z" fill="#FEFEFE"/>
</svg>
